<svg width="2098" height="412" viewBox="0 0 2098 412" fill="none" xmlns="http://www.w3.org/2000/svg">
<path d="M82 314L0.5 60.5H76L98 144C103.333 165 107.833 184 111.5 201C115.167 217.667 117.333 229.167 118 235.5L119.5 245C121.833 225 130 191.333 144 144L168.5 60.5H231.5L255.5 144C261.5 165.333 266.5 184.5 270.5 201.5C274.5 218.167 277 229.667 278 236L279.5 245C281.833 225.333 289.667 191.667 303 144L326.5 60.5H398.5L317.5 314H242.5L220.5 231C215.833 213 211.667 196.167 208 180.5C204.667 164.833 202.5 153.667 201.5 147L200 137C196.667 159.333 189.667 190.667 179 231L157 314H82ZM577.332 164V158C574.999 128.333 561.999 113.5 538.332 113.5C526.665 113.5 516.332 117.833 507.332 126.5C498.332 134.833 492.332 147.333 489.332 164H577.332ZM629.832 238.5V299.5C612.499 310.833 585.999 316.5 550.332 316.5C508.665 316.5 476.165 304.5 452.832 280.5C429.832 256.167 418.332 225 418.332 187C418.332 146.667 429.499 115.167 451.832 92.5C474.499 69.5 502.332 58 535.332 58C569.332 58 596.165 68 615.832 88C635.499 107.667 645.332 137.167 645.332 176.5C645.332 184.167 643.999 197.333 641.332 216H492.332C497.332 230 505.999 240.833 518.332 248.5C530.665 256.167 545.499 260 562.832 260C588.499 260 610.832 252.833 629.832 238.5ZM857.434 68V130.5C839.767 120.167 819.1 115 795.434 115C786.767 115 780.1 116.833 775.434 120.5C770.767 123.833 768.434 128.167 768.434 133.5C768.434 136.5 769.267 139.333 770.934 142C772.6 144.667 775.267 147.167 778.934 149.5C782.934 151.833 786.6 154 789.934 156C793.6 157.667 798.434 159.833 804.434 162.5C810.767 165.167 815.767 167.5 819.434 169.5C834.767 177.5 847.1 186.833 856.434 197.5C865.767 207.833 870.434 221.167 870.434 237.5C870.434 262.5 861.434 281.833 843.434 295.5C825.434 309.167 801.6 316 771.934 316C741.267 316 715.6 310.833 694.934 300.5V235.5C717.934 251.5 742.267 259.5 767.934 259.5C786.267 259.5 795.434 253.667 795.434 242C795.434 239 794.6 236.167 792.934 233.5C791.267 230.833 788.434 228.333 784.434 226C780.434 223.667 776.767 221.833 773.434 220.5C770.1 218.833 765.267 216.667 758.934 214C752.6 211.333 747.767 209.167 744.434 207.5C710.767 191.5 693.934 167.5 693.934 135.5C693.934 110.833 703.267 91.6667 721.934 78C740.934 64.3333 764.434 57.5 792.434 57.5C818.434 57.5 840.1 61 857.434 68Z" fill="#323232"/>
<path d="M1027.71 247.5C1043.37 247.5 1055.54 241.667 1064.21 230C1073.21 218 1077.71 203.667 1077.71 187C1077.71 141.667 1061.21 119 1028.21 119C1013.54 119 1002.04 124.667 993.707 136C985.374 147.333 981.207 163 981.207 183C981.207 204 985.207 220 993.207 231C1001.21 242 1012.71 247.5 1027.71 247.5ZM1077.71 60.5H1150.21V289.5C1150.21 330.167 1138.04 360.667 1113.71 381C1089.37 401.667 1058.87 412 1022.21 412C986.54 412 955.374 405.667 928.707 393V318.5C952.04 337.167 980.707 346.5 1014.71 346.5C1036.71 346.5 1052.71 341.833 1062.71 332.5C1072.71 323.167 1077.71 308.5 1077.71 288.5V271.5C1063.04 294.167 1039.71 305.5 1007.71 305.5C979.707 305.5 955.54 295.167 935.207 274.5C915.207 253.833 905.207 223.167 905.207 182.5C905.207 146.5 914.874 116.833 934.207 93.5C953.874 69.8333 979.54 58 1011.21 58C1041.21 58 1063.37 70 1077.71 94V60.5ZM1333.19 210H1309.69C1297.35 210 1287.85 212.667 1281.19 218C1274.52 223.333 1271.19 230.167 1271.19 238.5C1271.19 255.5 1281.02 264 1300.69 264C1311.02 264 1319.02 260.833 1324.69 254.5C1330.35 248.167 1333.19 239.5 1333.19 228.5V210ZM1214.69 138.5V73C1234.69 61.6667 1263.52 56 1301.19 56C1337.19 56 1364.02 63.8333 1381.69 79.5C1399.35 94.8333 1408.19 118.833 1408.19 151.5V314H1336.69V283C1326.02 304.667 1305.02 315.5 1273.69 315.5C1249.02 315.5 1229.69 308.5 1215.69 294.5C1202.02 280.5 1195.19 263 1195.19 242C1195.19 217.667 1204.02 198.833 1221.69 185.5C1239.69 171.833 1266.19 165 1301.19 165H1333.19V147.5C1333.19 126.167 1319.02 115.5 1290.69 115.5C1263.35 115.5 1238.02 123.167 1214.69 138.5ZM1550 114V230.5C1550 239.5 1552.5 246.333 1557.5 251C1562.83 255.667 1569.67 258 1578 258C1591.33 258 1603.17 254.667 1613.5 248V308.5C1601.17 313.833 1584.5 316.5 1563.5 316.5C1505.83 316.5 1477 287.667 1477 230V114H1440.5V60.5H1477V0.499983H1550V60.5H1609V114H1550ZM1804.87 164V158C1802.54 128.333 1789.54 113.5 1765.87 113.5C1754.2 113.5 1743.87 117.833 1734.87 126.5C1725.87 134.833 1719.87 147.333 1716.87 164H1804.87ZM1857.37 238.5V299.5C1840.04 310.833 1813.54 316.5 1777.87 316.5C1736.2 316.5 1703.7 304.5 1680.37 280.5C1657.37 256.167 1645.87 225 1645.87 187C1645.87 146.667 1657.04 115.167 1679.37 92.5C1702.04 69.5 1729.87 58 1762.87 58C1796.87 58 1823.7 68 1843.37 88C1863.04 107.667 1872.87 137.167 1872.87 176.5C1872.87 184.167 1871.54 197.333 1868.87 216H1719.87C1724.87 230 1733.54 240.833 1745.87 248.5C1758.2 256.167 1773.04 260 1790.37 260C1816.04 260 1838.37 252.833 1857.37 238.5ZM2084.97 68V130.5C2067.31 120.167 2046.64 115 2022.97 115C2014.31 115 2007.64 116.833 2002.97 120.5C1998.31 123.833 1995.97 128.167 1995.97 133.5C1995.97 136.5 1996.81 139.333 1998.47 142C2000.14 144.667 2002.81 147.167 2006.47 149.5C2010.47 151.833 2014.14 154 2017.47 156C2021.14 157.667 2025.97 159.833 2031.97 162.5C2038.31 165.167 2043.31 167.5 2046.97 169.5C2062.31 177.5 2074.64 186.833 2083.97 197.5C2093.31 207.833 2097.97 221.167 2097.97 237.5C2097.97 262.5 2088.97 281.833 2070.97 295.5C2052.97 309.167 2029.14 316 1999.47 316C1968.81 316 1943.14 310.833 1922.47 300.5V235.5C1945.47 251.5 1969.81 259.5 1995.47 259.5C2013.81 259.5 2022.97 253.667 2022.97 242C2022.97 239 2022.14 236.167 2020.47 233.5C2018.81 230.833 2015.97 228.333 2011.97 226C2007.97 223.667 2004.31 221.833 2000.97 220.5C1997.64 218.833 1992.81 216.667 1986.47 214C1980.14 211.333 1975.31 209.167 1971.97 207.5C1938.31 191.5 1921.47 167.5 1921.47 135.5C1921.47 110.833 1930.81 91.6667 1949.47 78C1968.47 64.3333 1991.97 57.5 2019.97 57.5C2045.97 57.5 2067.64 61 2084.97 68Z" fill="#067D91"/>
</svg>
