<svg width="666" height="354" viewBox="0 0 666 354" fill="none" xmlns="http://www.w3.org/2000/svg">
<path d="M82 256L0.5 2.49999H76L98 86C103.333 107 107.833 126 111.5 143C115.167 159.667 117.333 171.167 118 177.5L119.5 187C121.833 167 130 133.333 144 86L168.5 2.49999H231.5L255.5 86C261.5 107.333 266.5 126.5 270.5 143.5C274.5 160.167 277 171.667 278 178L279.5 187C281.833 167.333 289.667 133.667 303 86L326.5 2.49999H398.5L317.5 256H242.5L220.5 173C215.833 155 211.667 138.167 208 122.5C204.667 106.833 202.5 95.6667 201.5 89L200 79C196.667 101.333 189.667 132.667 179 173L157 256H82Z" fill="white"/>
<path d="M543.332 189.5C558.999 189.5 571.165 183.667 579.832 172C588.832 160 593.332 145.667 593.332 129C593.332 83.6667 576.832 61 543.832 61C529.165 61 517.665 66.6667 509.332 78C500.999 89.3333 496.832 105 496.832 125C496.832 146 500.832 162 508.832 173C516.832 184 528.332 189.5 543.332 189.5ZM593.332 2.49999H665.832V231.5C665.832 272.167 653.665 302.667 629.332 323C604.999 343.667 574.499 354 537.832 354C502.165 354 470.999 347.667 444.332 335V260.5C467.665 279.167 496.332 288.5 530.332 288.5C552.332 288.5 568.332 283.833 578.332 274.5C588.332 265.167 593.332 250.5 593.332 230.5V213.5C578.665 236.167 555.332 247.5 523.332 247.5C495.332 247.5 471.165 237.167 450.832 216.5C430.832 195.833 420.832 165.167 420.832 124.5C420.832 88.5 430.499 58.8333 449.832 35.5C469.499 11.8333 495.165 -1.21593e-05 526.832 -1.21593e-05C556.832 -1.21593e-05 578.999 12 593.332 36V2.49999Z" fill="#067D91"/>
</svg>
